<svg width="76" height="76" viewBox="0 0 76 76" fill="none" xmlns="http://www.w3.org/2000/svg">
<path fill-rule="evenodd" clip-rule="evenodd" d="M19.5323 26.8578C17.8135 17.4048 21.6454 8.03701 23.785 4.47101L27.215 6.52899C25.3546 9.62965 21.9865 17.9952 23.4677 26.1422C25.2301 35.8352 32.4386 44.3245 42.7638 47.5743C43.5628 39.7097 46.6596 32.192 50.1003 26.1528C53.8826 19.5137 58.2366 14.3934 60.7721 12.4213L63.2279 15.5787C61.2635 17.1066 57.22 21.7363 53.5758 28.1328C50.2087 34.043 47.3173 41.2306 46.6905 48.543C57.3487 50.5562 67.2152 47.8385 71.471 45.285L73.529 48.715C68.5139 51.7241 57.9205 54.5744 46.5115 52.5759C46.3288 59.3634 46.5537 63.2184 46.9173 65.711C47.2034 67.6722 47.5529 68.7326 47.9345 69.8904C48.0926 70.3701 48.2562 70.8665 48.4231 71.4506L44.577 72.5494C44.4681 72.1684 44.3399 71.779 44.2017 71.3594C43.7938 70.1206 43.2991 68.6184 42.9592 66.2884C42.5334 63.3698 42.3108 59.0509 42.5356 51.6799C30.2932 48.2281 21.6183 38.3312 19.5323 26.8578Z" fill="#14738A"/>
<path fill-rule="evenodd" clip-rule="evenodd" d="M4.79053 43.462C22.2887 14.6415 46.6286 10.9708 62.1331 12.0044L61.8671 15.9956C47.3716 15.0292 24.7115 18.3585 8.20968 45.538L4.79053 43.462Z" fill="#14738A"/>
<path fill-rule="evenodd" clip-rule="evenodd" d="M67.1243 57.8267C60.7632 64.3841 51.8575 68.4593 42 68.4593C22.67 68.4593 7 52.7892 7 33.4593C7 21.0938 13.4126 10.226 23.0936 4C9.56841 9.34383 0 22.5341 0 37.9593C0 58.1177 16.3416 74.4593 36.5 74.4593C49.3312 74.4593 60.6159 67.8384 67.1243 57.8267Z" fill="#002A5E"/>
<circle cx="26" cy="4" r="4" fill="#002A5E"/>
<circle cx="62" cy="14" r="4" fill="#002A5E"/>
<circle cx="45" cy="50" r="5" fill="#002A5E"/>
<circle cx="22" cy="26" r="5" fill="#002A5E"/>
<circle cx="72" cy="47" r="4" fill="#002A5E"/>
<circle cx="39.5" cy="16.5" r="3.5" fill="#002A5E"/>
<circle cx="44.5" cy="62.5" r="3.5" fill="#002A5E"/>
</svg>
